<svg id="Layer_1" data-name="Layer 1" xmlns="http://www.w3.org/2000/svg" viewBox="0 0 110 110"><defs><style>.cls-1{fill:#f1f1f1;}.cls-2{fill:#e02918;}.cls-3{fill:#24356b;}</style></defs><title>Speed of sound UI_us</title><path class="cls-1" d="M1.62,41.79a55,55,0,1,1,40.17,66.59A55,55,0,0,1,1.62,41.79"/><path class="cls-2" d="M105.86,34.09H63.26v8.42h45.3a55.13,55.13,0,0,0-2.7-8.42M95,17.24H63.26v8.43h38.25A55.22,55.22,0,0,0,95,17.24M15.29,93H94.72a54.73,54.73,0,0,0,6.63-8.42H8.67A55.24,55.24,0,0,0,15.29,93M68.21,1.62c-1.65-.41-3.3-.73-5-1V8.82H84.88a54.91,54.91,0,0,0-16.67-7.2m41.64,49.3H63.26v8.43h46.56a54.68,54.68,0,0,0,0-8.43M4.26,76.2H105.75a55.58,55.58,0,0,0,2.63-8l.1-.44H1.51A55,55,0,0,0,4.26,76.2m37.53,32.17a55.3,55.3,0,0,0,9.74,1.51h7a55,55,0,0,0,25.88-8.43H25.56a54.93,54.93,0,0,0,16.23,6.92"/><path class="cls-3" d="M59.09,56.27,57.9,55.4l-1.19.87.45-1.39L56,54h1.47l.46-1.39L58.35,54h1.47l-1.19.87ZM53.25,11.95l.45,1.4-1.19-.87-1.19.87.46-1.4-1.19-.86h1.47l.46-1.4.45,1.4h1.47Zm0,12.66L53.7,26l-1.19-.87L51.33,26l.46-1.4-1.19-.87h1.47l.46-1.39L53,23.74h1.47ZM53.14,37l.45,1.4-1.19-.87-1.19.87.45-1.4-1.19-.87H52l.45-1.39.45,1.39h1.47Zm.34,13.66L52.3,49.8l-1.19.87.45-1.39-1.19-.87h1.47L52.3,47l.45,1.39h1.47L53,49.27ZM47.64,18.08l.46,1.4-1.19-.86-1.19.86.46-1.4L45,17.22h1.47l.46-1.39.45,1.39h1.47Zm0,12.27.46,1.39-1.19-.87-1.19.87.46-1.39L45,29.49h1.47l.46-1.4.45,1.4h1.47Zm0,12.54.46,1.4-1.19-.87-1.19.87.46-1.4L45,42h1.47l.46-1.4.45,1.4h1.47Zm.46,13.37-1.19-.87-1.19.87.46-1.39L45,54h1.47l.46-1.39L47.36,54h1.47l-1.19.87ZM42.25,11.95l.46,1.4-1.19-.87-1.19.87.46-1.4-1.19-.86h1.47l.45-1.4.45,1.4h1.47Zm0,12.66.46,1.4-1.19-.87L40.33,26l.46-1.4-1.19-.87h1.47l.45-1.39L42,23.74h1.47ZM42.15,37l.45,1.4-1.19-.87-1.19.87.45-1.4-1.19-.87H41l.46-1.39.45,1.39h1.47Zm.34,13.66L41.3,49.8l-1.19.87.45-1.39-1.19-.87h1.47L41.3,47l.45,1.39h1.47L42,49.27ZM36.65,5.82l.45,1.4-1.19-.87-1.19.87.45-1.4L34,5h1.47l.45-1.4L36.37,5h1.47Zm0,12.26.45,1.4-1.19-.86-1.19.86.45-1.4L34,17.22h1.47l.45-1.39.45,1.39h1.47Zm0,12.27.45,1.39-1.19-.87-1.19.87.45-1.39L34,29.49h1.47l.45-1.4.45,1.4h1.47Zm0,12.54.45,1.4-1.19-.87-1.19.87.45-1.4L34,42h1.47l.45-1.4.45,1.4h1.47Zm.45,13.37-1.19-.87-1.19.87.45-1.39L34,54h1.47l.45-1.39L36.37,54h1.47l-1.19.87ZM31.26,11.51l.46,1.4L30.52,12l-1.19.87.46-1.4-1.19-.86h1.47l.45-1.39L31,10.65h1.47Zm0,12.66.46,1.4-1.19-.86-1.19.86.46-1.4L28.6,23.3h1.47l.45-1.39L31,23.3h1.47Zm-.11,12.4L31.61,38l-1.19-.87L29.22,38l.46-1.39-1.19-.87H30l.46-1.39.45,1.39h1.47Zm.35,13.66-1.19-.87-1.19.87.45-1.4L28.38,48h1.47l.46-1.4.45,1.4h1.47L31,48.83ZM25.65,18.08l.46,1.4-1.19-.86-1.19.86.46-1.4L23,17.22h1.46l.46-1.39.45,1.39h1.47Zm0,12.27.46,1.39-1.19-.87-1.19.87.46-1.39L23,29.49h1.46l.46-1.4.45,1.4h1.47Zm0,12.54.46,1.4-1.19-.87-1.19.87.46-1.4L23,42h1.46l.46-1.4.45,1.4h1.47Zm.46,13.37-1.19-.87-1.19.87.46-1.39L23,54h1.46l.46-1.39L25.37,54h1.47l-1.19.87ZM20.27,24l.45,1.4-1.19-.87-1.19.87L18.8,24l-1.19-.87h1.47l.45-1.39L20,23.18h1.47Zm-.11,12.4.45,1.4L19.42,37l-1.19.87.45-1.4-1.19-.87H19l.46-1.4.45,1.4h1.47Zm.34,13.66-1.19-.87-1.19.87.45-1.39-1.19-.87h1.47l.45-1.39.46,1.39h1.47L20,48.71ZM46.45,5l.46-1.4L47.36,5h1.47l-1.19.87.46,1.4-1.19-.87-1.19.87.46-1.4L45,5ZM57.45,42l.46-1.4.45,1.4h1.47l-1.19.86.45,1.4-1.19-.87-1.19.87.45-1.4L56,42Zm0-12.55.46-1.4.45,1.4h1.47l-1.19.87.45,1.39-1.19-.87-1.19.87.45-1.39L56,29.49Zm0-12.27.46-1.39.45,1.39h1.47l-1.19.87.45,1.4-1.19-.86-1.19.86.45-1.4L56,17.22ZM57.45,5l.46-1.4L58.35,5h1.47l-1.19.87.45,1.4L57.9,6.35l-1.19.87.45-1.4L56,5ZM14.66,30.35l.45,1.39-1.19-.87-1.19.87.45-1.39L12,29.49h1.47l.46-1.4.45,1.4h1.47Zm0,12.54.45,1.4-1.19-.87-1.19.87.45-1.4L12,42h1.47l.46-1.4.45,1.4h1.47Zm.45,13.37-1.19-.87-1.19.87.45-1.39L12,54h1.47l.46-1.39L14.38,54h1.47l-1.19.87Zm-6-20,.46,1.39-1.19-.86-1.19.86.45-1.39L6.5,35.37H8L8.42,34l.46,1.39h1.47Zm.35,13.66L8.32,49l-1.2.87.46-1.39-1.19-.87H7.86l.46-1.39.45,1.39h1.47L9,48.5ZM4.12,56.27,2.93,55.4l-1.19.87.45-1.39L1,54H2.48l.45-1.39L3.39,54H4.85l-1.19.87ZM63.26.64C62.72.55,58.71.11,58.17,0L48.29.41A55.12,55.12,0,0,0,20.52,12.17l.2.62-.51-.38A54.76,54.76,0,0,0,15,17.22h.81l-1.19.87.45,1.4-1.19-.86-.47.34q-1.66,1.92-3.15,4h.16l-.35.25-.71,1,.32,1-.65-.47a54.92,54.92,0,0,0-7.45,17L1.57,42h.91l.45-1.4L3.39,42H4.85l-1.19.86.45,1.4-1.19-.87-1.19.87.45-1.4-.71-.51a54.9,54.9,0,0,0-1.31,17H63.26Z"/></svg>