<svg id="Layer_1" data-name="Layer 1" xmlns="http://www.w3.org/2000/svg" viewBox="0 0 110 110"><defs><style>.cls-1{fill:#e02918;}.cls-2{fill:#f1f1f1;}</style></defs><title>Speed of sound UI</title><path class="cls-1" d="M1.62,41.68a55,55,0,1,1,40.17,66.59A55,55,0,0,1,1.62,41.68"/><path class="cls-2" d="M108.81,66.2l.07-.35.12-.61.07-.36c0-.21.08-.42.11-.63l.05-.32q.07-.4.13-.79l0-.16q.07-.48.13-1l0-.25q0-.35.08-.7l0-.33.06-.63,0-.35q0-.32.05-.63l0-.32c0-.24,0-.48,0-.73v-.22q0-.48,0-1v-.15q0-.39,0-.79c0-.1,0-.2,0-.3s0-.43,0-.65v-.33q0-.32,0-.64c0-.1,0-.21,0-.31s0-.46,0-.7c0-.08,0-.16,0-.24q0-.94-.1-1.88c0-.08,0-.16,0-.25s0-.46-.06-.69l0-.3c0-.22,0-.43-.06-.65l0-.3q0-.34-.08-.69l0-.24q-.12-.93-.27-1.86l0-.17c0-.25-.08-.5-.13-.75l0-.26-.13-.67-.05-.27-.15-.68,0-.23-.19-.83,0-.06-.22-.87h0q-.62-2.42-1.46-4.76H3.21Q2.29,39,1.62,41.68A54.81,54.81,0,0,0,.68,63.52l0,.09c0,.26.08.51.13.77l0,.16q.06.36.13.72l0,.21c0,.23.09.45.14.68l.05.25.14.64.07.3.14.6.11.45.18.68.18.66.08.29.18.63.09.29.19.62.09.29.21.62.1.28.22.63.05.15h0l.14.39H106.58l.14-.39h0c.12-.32.23-.65.34-1l0-.09c.14-.42.28-.85.41-1.28l.06-.18c.12-.4.24-.81.35-1.21l.07-.25c.13-.48.26-1,.38-1.46q.12-.48.23-1l.07-.3.14-.65"/></svg>