<svg id="Layer_1" data-name="Layer 1" xmlns="http://www.w3.org/2000/svg" viewBox="0 0 110 110"><defs><style>.cls-1{fill:#56aa31;}.cls-2{fill:#ffcf00;}.cls-3{fill:#312780;}.cls-4{fill:#fff;}.cls-5{fill:#009045;}.cls-6{fill:#058037;}</style></defs><title>Speed of sound UI</title><path class="cls-1" d="M1.63,41.57a55,55,0,1,1,40.16,66.58A55,55,0,0,1,1.63,41.57"/><polygon class="cls-2" points="3.81 55 54.59 87.43 105.37 55 54.59 22.57 3.81 55"/><path class="cls-3" d="M54.59,33.25A21.75,21.75,0,1,1,32.84,55,21.75,21.75,0,0,1,54.59,33.25"/><path class="cls-4" d="M76.23,57.19A52.57,52.57,0,0,0,41.44,45.69a52,52,0,0,0-6.83.7,21.3,21.3,0,0,0-1.13,3.36,50.08,50.08,0,0,1,8.07-1,49.57,49.57,0,0,1,34,11.87,21.33,21.33,0,0,0,.64-3.48"/><path class="cls-5" d="M35.67,47.76l.24.51.45.12.39-.24.08-.57-.24-.52L36.15,47l-.4.24Zm-.43.07,0-.55L35.4,47l.25-.23.45-.15.78.18.4.76-.17.84-.7.39-.79-.18Z"/><path class="cls-5" d="M38.55,47.24l.31,0,.38-.06.11-.1,0-.16-.07-.17-.17-.07-.32,0-.33,0Zm-.32,1.26L38,46.38l.89-.08h.51l.26.18.12.33-.11.4-.4.23.25.16.27.32.3.39-.51,0-.35-.43L39,47.65l-.14-.08h-.31l.08.88Z"/><path class="cls-5" d="M41.25,46.5l0,1.41h.32l.26,0,.17-.1.1-.21,0-.39-.06-.38L42,46.6l-.2-.09h-.55Zm-.44-.35.79,0,.4,0,.32.19.22.34.08.5-.06.45-.21.38-.3.18-.38.06-.81,0Z"/><polygon class="cls-5" points="43.48 48.22 43.5 46.09 45.08 46.12 45.08 46.48 43.93 46.46 43.92 46.93 44.99 46.95 44.99 47.31 43.92 47.29 43.91 47.87 45.1 47.89 45.09 48.25 43.48 48.22"/><polygon class="cls-5" points="45.95 48.28 46.1 46.16 46.73 46.2 47.02 47.68 47.5 46.26 48.14 46.3 47.99 48.42 47.6 48.4 47.71 46.72 47.17 48.37 46.77 48.34 46.46 46.63 46.34 48.3 45.95 48.28"/><polygon class="cls-5" points="50.19 48.67 50.51 46.57 52.07 46.81 52.02 47.17 50.88 46.99 50.81 47.46 51.87 47.62 51.81 47.97 50.76 47.81 50.67 48.39 51.85 48.56 51.8 48.92 50.19 48.67"/><path class="cls-5" d="M54.7,47.69l-.14.59.23.05.34,0,.16-.07.08-.15,0-.21-.15-.13-.29-.08Zm-.82,1.63.48-2.07.67.15.49.14.25.27,0,.43-.14.31-.22.16-.24,0-.44-.07-.27-.06-.18.78Z"/><path class="cls-5" d="M57.05,48.84l.3.09.38.08.14,0,.09-.15v-.18l-.13-.12-.3-.1-.31-.09ZM56.3,49.9l.58-2,.87.25.46.19.18.26v.35l-.25.34-.46.07.17.24L58,50l.14.47-.5-.14-.17-.53-.13-.36-.1-.12L57,49.19l-.08,0-.24.86Z"/><path class="cls-5" d="M59.49,49.75l0,.57.34.32.45,0,.34-.46,0-.57-.35-.31-.46,0Zm-.42-.13.27-.48.28-.21.32-.09.46.07.61.52v.86l-.53.67-.8,0-.62-.51Z"/><polygon class="cls-5" points="62.65 51.24 62.79 50.9 63.65 51.25 63.33 52.04 62.88 52.1 62.36 52 61.87 51.65 61.69 51.14 61.78 50.56 62.14 50.07 62.67 49.86 63.17 49.96 63.68 50.35 63.77 50.88 63.35 50.79 63.29 50.5 63.04 50.29 62.55 50.29 62.2 50.72 62.14 51.3 62.47 51.65 62.75 51.7 63.01 51.67 63.11 51.42 62.65 51.24"/><path class="cls-5" d="M64.94,51.75l.29.14.35.14.15,0,.1-.13,0-.18-.11-.14-.27-.14-.31-.15Zm-.91.93.91-1.92.81.39.42.27.14.29-.07.34-.29.3h-.46l.13.26.07.42.06.49-.46-.22-.08-.55-.07-.38-.08-.14-.19-.11-.07,0-.39.8Z"/><polygon class="cls-5" points="66.37 53.82 67.39 51.95 68.78 52.7 68.61 53.02 67.59 52.47 67.37 52.89 68.31 53.39 68.14 53.71 67.2 53.2 66.93 53.71 67.97 54.27 67.8 54.59 66.37 53.82"/><polygon class="cls-5" points="68.79 54.36 69.17 54.54 69.14 54.89 69.35 55.13 69.67 55.22 69.87 55.1 69.9 54.96 69.81 54.81 69.56 54.55 69.26 54.12 69.31 53.66 69.55 53.44 69.88 53.39 70.28 53.55 70.7 54.01 70.65 54.52 70.27 54.31 70.29 54.05 70.1 53.85 69.81 53.76 69.68 53.84 69.67 53.98 69.94 54.31 70.24 54.68 70.33 54.99 70.23 55.32 69.97 55.56 69.6 55.61 69.17 55.44 68.73 54.96 68.79 54.36"/><polygon class="cls-5" points="70.92 55.68 71.29 55.88 71.24 56.22 71.45 56.47 71.76 56.58 71.95 56.46 71.99 56.34 71.92 56.17 71.68 55.9 71.4 55.46 71.48 54.99 71.73 54.79 72.07 54.76 72.45 54.94 72.85 55.42 72.77 55.93 72.4 55.7 72.43 55.44 72.25 55.23 71.97 55.13 71.83 55.2 71.81 55.34 72.06 55.68 72.36 56.06 72.43 56.38 72.31 56.7 72.04 56.93 71.67 56.97 71.24 56.77 70.83 56.27 70.92 55.68"/><path class="cls-5" d="M73.58,57.07l-.19.54.22.4.45.11.47-.35.2-.53-.23-.4L74,56.73Zm-.36-.26.41-.37.33-.11h.33l.42.21.42.69-.27.82-.71.47-.78-.22L73,57.62Z"/><polygon class="cls-4" points="61.49 46.75 61.7 47.36 62.34 47.36 61.82 47.74 62.02 48.35 61.49 47.98 60.97 48.35 61.18 47.74 60.66 47.36 61.3 47.36 61.49 46.75"/><polygon class="cls-4" points="54.68 64.31 54.88 64.93 55.52 64.93 55 65.31 55.2 65.92 54.68 65.54 54.16 65.92 54.36 65.31 53.83 64.93 54.48 64.93 54.68 64.31"/><polygon class="cls-4" points="70.11 62.15 70.32 62.78 70.98 62.78 70.44 63.17 70.65 63.79 70.11 63.41 69.59 63.79 69.78 63.17 69.26 62.78 69.91 62.78 70.11 62.15"/><polygon class="cls-4" points="73.16 62.67 73.29 63.07 73.71 63.07 73.37 63.32 73.5 63.72 73.16 63.48 72.82 63.72 72.95 63.32 72.61 63.07 73.03 63.07 73.16 62.67"/><polygon class="cls-4" points="70.99 64.23 71.17 64.77 71.75 64.77 71.28 65.11 71.46 65.65 70.99 65.31 70.53 65.65 70.72 65.11 70.25 64.77 70.82 64.77 70.99 64.23"/><polygon class="cls-4" points="69.64 66.02 69.81 66.56 70.37 66.56 69.92 66.89 70.1 67.42 69.64 67.09 69.19 67.42 69.36 66.89 68.91 66.56 69.47 66.56 69.64 66.02"/><polygon class="cls-4" points="67.89 67.33 68.03 67.73 68.46 67.73 68.11 67.99 68.25 68.4 67.89 68.14 67.55 68.4 67.68 67.99 67.33 67.73 67.76 67.73 67.89 67.33"/><polygon class="cls-4" points="65.61 66.89 65.74 67.29 66.16 67.29 65.82 67.54 65.95 67.95 65.61 67.7 65.26 67.95 65.39 67.54 65.05 67.29 65.48 67.29 65.61 66.89"/><polygon class="cls-4" points="63.14 67.63 63.29 68.07 63.74 68.07 63.37 68.34 63.52 68.78 63.14 68.51 62.77 68.78 62.91 68.34 62.54 68.07 63 68.07 63.14 67.63"/><polygon class="cls-4" points="65.65 71.22 65.78 71.64 66.21 71.64 65.87 71.89 66 72.3 65.65 72.05 65.3 72.3 65.43 71.89 65.08 71.64 65.51 71.64 65.65 71.22"/><polygon class="cls-4" points="61.21 69.33 61.39 69.89 61.98 69.89 61.5 70.24 61.69 70.8 61.21 70.45 60.73 70.8 60.92 70.24 60.44 69.89 61.03 69.89 61.21 69.33"/><polygon class="cls-4" points="59.5 67.06 59.65 67.49 60.1 67.49 59.73 67.75 59.88 68.18 59.5 67.92 59.14 68.18 59.28 67.75 58.92 67.49 59.37 67.49 59.5 67.06"/><polygon class="cls-4" points="65.72 68.84 65.9 69.38 66.47 69.38 66 69.72 66.18 70.26 65.72 69.93 65.26 70.26 65.43 69.72 64.97 69.38 65.54 69.38 65.72 68.84"/><polygon class="cls-4" points="54.65 72.34 54.72 72.53 54.92 72.53 54.75 72.66 54.81 72.85 54.65 72.73 54.49 72.85 54.55 72.66 54.39 72.53 54.59 72.53 54.65 72.34"/><polygon class="cls-4" points="60.42 53.36 60.57 53.81 61.03 53.81 60.66 54.08 60.81 54.53 60.42 54.26 60.05 54.53 60.19 54.08 59.81 53.81 60.28 53.81 60.42 53.36"/><polygon class="cls-4" points="54.67 58.16 54.82 58.63 55.32 58.63 54.91 58.92 55.07 59.39 54.67 59.09 54.27 59.39 54.42 58.92 54.02 58.63 54.52 58.63 54.67 58.16"/><polygon class="cls-4" points="57.22 60.13 57.38 60.64 57.91 60.64 57.49 60.95 57.66 61.45 57.22 61.14 56.79 61.45 56.96 60.95 56.53 60.64 57.06 60.64 57.22 60.13"/><polygon class="cls-4" points="52.46 60.2 52.58 60.6 53 60.6 52.66 60.84 52.79 61.24 52.46 61 52.12 61.24 52.25 60.84 51.91 60.6 52.32 60.6 52.46 60.2"/><polygon class="cls-4" points="53.51 61.99 53.6 62.26 53.88 62.26 53.65 62.42 53.74 62.69 53.51 62.52 53.29 62.69 53.38 62.42 53.15 62.26 53.43 62.26 53.51 61.99"/><polygon class="cls-4" points="36.62 50.53 36.82 51.15 37.46 51.15 36.94 51.53 37.14 52.14 36.62 51.76 36.1 52.14 36.3 51.53 35.78 51.15 36.42 51.15 36.62 50.53"/><polygon class="cls-4" points="46.13 55.47 46.29 55.98 46.83 55.98 46.4 56.29 46.57 56.8 46.13 56.48 45.7 56.8 45.87 56.29 45.44 55.98 45.97 55.98 46.13 55.47"/><polygon class="cls-4" points="38.59 59.77 38.79 60.39 39.44 60.39 38.91 60.77 39.11 61.39 38.59 61 38.06 61.39 38.26 60.77 37.74 60.39 38.39 60.39 38.59 59.77"/><polygon class="cls-4" points="40.73 58.85 40.82 59.16 41.15 59.16 40.89 59.35 40.99 59.66 40.73 59.47 40.47 59.66 40.56 59.35 40.3 59.16 40.63 59.16 40.73 58.85"/><polygon class="cls-4" points="43.2 62.09 43.37 62.61 43.92 62.61 43.48 62.94 43.65 63.46 43.2 63.13 42.75 63.46 42.93 62.94 42.48 62.61 43.03 62.61 43.2 62.09"/><polygon class="cls-4" points="45.79 66.13 45.99 66.74 46.64 66.74 46.11 67.12 46.31 67.73 45.79 67.36 45.27 67.73 45.47 67.12 44.95 66.74 45.59 66.74 45.79 66.13"/><polygon class="cls-4" points="42.49 64.28 42.66 64.81 43.2 64.81 42.77 65.13 42.93 65.65 42.49 65.33 42.05 65.65 42.21 65.13 41.77 64.81 42.32 64.81 42.49 64.28"/><polygon class="cls-4" points="35.86 62.01 35.99 62.41 36.42 62.41 36.07 62.66 36.21 63.07 35.86 62.82 35.52 63.07 35.65 62.66 35.3 62.41 35.73 62.41 35.86 62.01"/><path class="cls-6" d="M56.89,47.85l-.58,2,.42.12.24-.86.08,0,.21.08.1.12.13.36.17.53.5.14L58,50l-.14-.4-.17-.24.46-.07.25-.34v-.35l-.18-.26-.46-.19ZM57.74,49l-.38-.08-.3-.09.16-.52.31.09.3.1.13.12v.18l-.09.15Z"/><path class="cls-6" d="M59.94,48.83l-.32.09-.28.21-.27.48v.85l.62.51.8,0,.53-.67v-.86l-.61-.52Zm-.13,1.81-.34-.32,0-.57.33-.47.46,0,.35.31,0,.57-.34.46Z"/><polygon class="cls-6" points="62.67 49.86 62.14 50.07 61.78 50.56 61.69 51.14 61.87 51.65 62.36 52 62.88 52.1 63.33 52.04 63.65 51.25 62.79 50.9 62.65 51.24 63.11 51.42 63.01 51.67 62.75 51.7 62.47 51.65 62.14 51.3 62.2 50.72 62.55 50.29 63.04 50.29 63.29 50.5 63.35 50.79 63.77 50.88 63.68 50.35 63.17 49.96 62.67 49.86"/><path class="cls-6" d="M64.94,50.76,64,52.67l.39.19.39-.8.07,0,.19.11.08.14.07.38.08.55.47.22L65.7,53l-.07-.42-.13-.26H66l.29-.3.07-.34-.14-.29-.42-.27ZM65.59,52l-.35-.14-.29-.14.23-.48.31.15.27.14.11.14,0,.18-.1.12Z"/><polygon class="cls-6" points="67.39 51.95 66.37 53.82 67.8 54.59 67.97 54.27 66.93 53.71 67.2 53.2 68.14 53.71 68.31 53.39 67.37 52.89 67.59 52.47 68.61 53.02 68.78 52.7 67.39 51.95"/><polygon class="cls-6" points="69.88 53.39 69.55 53.44 69.31 53.65 69.26 54.12 69.56 54.55 69.81 54.81 69.9 54.96 69.87 55.1 69.67 55.22 69.35 55.13 69.14 54.89 69.17 54.54 68.79 54.36 68.73 54.96 69.17 55.44 69.6 55.61 69.97 55.56 70.23 55.32 70.33 54.99 70.24 54.68 69.94 54.31 69.67 53.98 69.68 53.84 69.81 53.76 70.1 53.85 70.29 54.05 70.27 54.31 70.65 54.52 70.7 54.01 70.28 53.55 69.88 53.39"/><polygon class="cls-6" points="72.07 54.76 71.73 54.79 71.48 54.99 71.4 55.46 71.68 55.9 71.92 56.17 71.99 56.34 71.95 56.46 71.76 56.58 71.45 56.47 71.24 56.22 71.29 55.88 70.92 55.68 70.83 56.27 71.24 56.77 71.67 56.97 72.04 56.93 72.31 56.7 72.43 56.38 72.36 56.06 72.06 55.68 71.81 55.34 71.83 55.2 71.97 55.13 72.25 55.23 72.43 55.44 72.4 55.7 72.77 55.93 72.85 55.42 72.45 54.94 72.07 54.76"/><path class="cls-6" d="M74,56.32l-.33.11-.41.37-.25.81.42.69.78.22.71-.47.27-.82-.42-.69-.42-.21Zm.1,1.8L73.6,58l-.22-.4.19-.54.46-.34.45.11.23.4-.2.53Z"/></svg>