<svg id="Layer_1" data-name="Layer 1" xmlns="http://www.w3.org/2000/svg" viewBox="0 0 110 110"><defs><style>.cls-1{fill:#e02918;}.cls-2{fill:#f1f1f1;}</style></defs><title>Speed of sound UI</title><path class="cls-1" d="M41.79,108.27a55,55,0,1,1,66.59-40.16,55,55,0,0,1-66.59,40.16"/><path class="cls-1" d="M36.53,106.69V3.1a55,55,0,0,0,0,103.59"/><path class="cls-2" d="M66.3,1.08,66,1,65.34.89,65,.82,64.35.71,64,.65,63.24.53l-.16,0-1-.13-.25,0-.7-.08-.33,0L60.22.15l-.35,0L59.24.06l-.32,0-.73,0H58l-1,0h-.15l-.79,0H53.85l-.7,0h-.24Q52,0,51,0l-.25,0L50.1.11l-.3,0-.65.07-.3,0-.68.08-.24,0Q47,.47,46.07.62l-.17,0-.75.13-.26,0L44.23,1,44,1l-.68.15-.23,0-.84.19h-.06l-.87.22h0q-2.42.62-4.76,1.46V106.69q2.56.91,5.26,1.58a54.76,54.76,0,0,0,21.84.94h.09l.77-.13.16,0,.72-.13.21,0,.68-.14.26-.05.64-.14.3-.07.6-.14.45-.12.68-.18.66-.18.29-.08.63-.18.29-.09.62-.19.29-.09.62-.21.28-.1.63-.22.15-.05h0l.39-.14V3.31l-.39-.14h0l-1-.34-.1,0-1.28-.41-.18-.06L69.92,2l-.26-.07-1.46-.38-1-.23L67,1.22l-.65-.14"/><path class="cls-1" d="M55.55,75.57h.71L56,66.12l.66-.56,8.58,1L64.52,64a1.21,1.21,0,0,1,.39-1.23l8.61-7.31-1.78-.88c-.78-.29-.56-.75-.28-1.86l1.31-5-5,1.1a.76.76,0,0,1-.89-.55l-.65-2.35-4,4.63c-.56.74-1.7.74-1.35-1l1.69-9.37-2.27,1.23c-.64.37-1.27.43-1.63-.23l-3.18-6.1-3.18,6.1c-.35.66-1,.6-1.63.23l-2.27-1.23,1.69,9.37c.35,1.72-.79,1.72-1.35,1l-4-4.63-.64,2.35a.77.77,0,0,1-.89.55l-5-1.1,1.31,5c.28,1.11.5,1.57-.28,1.86l-1.79.88,8.61,7.31A1.21,1.21,0,0,1,46.58,64l-.75,2.58,8.58-1,.66.56-.23,9.45Z"/></svg>