<svg id="Layer_1" data-name="Layer 1" xmlns="http://www.w3.org/2000/svg" viewBox="0 0 110 110"><defs><style>.cls-1{fill:#ffcf00;}.cls-2{fill:#221c10;}.cls-3{fill:#e1382e;}</style></defs><title>Speed of sound UI</title><path class="cls-1" d="M1.62,41.68a55,55,0,1,1,40.16,66.58A55,55,0,0,1,1.62,41.68"/><path class="cls-2" d="M3.21,36.42H106.8a55,55,0,0,0-103.59,0"/><path class="cls-3" d="M108.81,66.2l.07-.35.12-.61.07-.36.11-.63.06-.32q.07-.4.13-.79l0-.16q.07-.48.13-1l0-.25q0-.35.08-.7l0-.33.06-.63,0-.35q0-.32.05-.63l0-.32c0-.24,0-.48,0-.73,0-.07,0-.15,0-.22q0-.48,0-1c0-.05,0-.1,0-.15,0-.26,0-.53,0-.79,0-.1,0-.2,0-.3s0-.43,0-.65,0-.22,0-.33,0-.42,0-.64,0-.21,0-.31,0-.46,0-.7c0-.08,0-.16,0-.24,0-.63-.06-1.26-.1-1.88l0-.25q0-.34-.06-.69l0-.3-.06-.65,0-.3c0-.23-.05-.46-.08-.69l0-.24q-.12-.93-.27-1.86l0-.17c0-.25-.08-.5-.13-.75l0-.26-.13-.67-.05-.26-.15-.68,0-.23q-.09-.42-.19-.83v-.06c-.07-.29-.14-.58-.22-.87h0q-.62-2.42-1.46-4.76H3.21Q2.3,39,1.62,41.68A54.79,54.79,0,0,0,.68,63.52l0,.09c0,.26.08.51.13.77l0,.16c0,.24.09.48.13.72l0,.21c0,.23.09.45.14.68l.05.25.14.64.07.3.14.6.11.45.18.68.18.66.08.29.18.63.09.29.19.62.09.29.21.63.1.28.22.63.05.15h0l.14.39H106.58l.14-.39h0c.12-.32.23-.65.34-1l0-.09q.21-.64.41-1.28l.06-.18q.18-.6.35-1.21l.07-.25q.2-.73.38-1.46.12-.48.23-.95l.07-.31.14-.65"/></svg>