<svg id="Layer_1" data-name="Layer 1" xmlns="http://www.w3.org/2000/svg" viewBox="0 0 110 110"><defs><style>.cls-1{fill:#f1f1f1;}.cls-2{fill:#e02918;}.cls-3{fill:#24356b;}.cls-4{fill:#3a3938;}</style></defs><title>Speed of sound UI</title><path class="cls-1" d="M1.52,41.66a55.09,55.09,0,1,1,40.24,66.71A55.09,55.09,0,0,1,1.52,41.66"/><path class="cls-2" d="M77.06,51.77A20.92,20.92,0,1,1,54.32,32.84,20.93,20.93,0,0,1,77.06,51.77"/><path class="cls-3" d="M38.32,42.86A10.45,10.45,0,1,0,56.2,53.7,10.45,10.45,0,0,1,74.06,64.52,20.9,20.9,0,1,1,38.32,42.86"/><path class="cls-4" d="M22.23,77l5.44,8.06,2.72-1.83-5.44-8.06Zm-.86-1.27,2.72-1.83-5.44-8.06L15.93,67.7Zm-9.62-5.24,11.74,17.4L26.2,86.1,14.46,68.7Zm8.36-5.64,11.74,17.4,2.71-1.83L22.83,63Zm72.2-22.42L86.89,34.4l-2.71,1.83,5.44,8.06ZM86,33.13l-5.43-8.07-2.71,1.83L83.31,35Zm12,5.53,2.71-1.83-5.44-8.06-2.71,1.83ZM94.39,27.48l-5.44-8.06-2.71,1.83,5.44,8.06ZM96.5,39.65,84.77,22.24l-2.72,1.83,11.74,17.4ZM86.23,86.1l2.71,1.83,5.44-8.06L91.67,78Zm6.3-9.34,2.71,1.83,5.44-8.06L98,68.7Zm-5-1.54-5.44,8.06,2.71,1.84L90.2,77Zm9-7.51-2.71-1.83-5.44,8.06,2.71,1.83Zm-13.2,4.68-5.44,8.06,2.72,1.83L86,74.22Zm3.58.56,5.43-8.06L89.61,63l-5.44,8.06ZM20.11,42.47l2.71,1.83L34.56,26.89l-2.71-1.83Zm-1.47-1L30.39,24.07l-2.72-1.83L15.93,39.65ZM26.2,21.25l-2.71-1.83L11.75,36.82l2.72,1.83Z"/></svg>