<svg id="Layer_1" data-name="Layer 1" xmlns="http://www.w3.org/2000/svg" xmlns:xlink="http://www.w3.org/1999/xlink" viewBox="0 0 110 110"><defs><style>.cls-1{fill:none;}.cls-2{clip-path:url(#clip-path);}.cls-3{fill:url(#radial-gradient);}.cls-4{fill:#24356b;}.cls-5{fill:#f0edea;}.cls-6{fill:#e02918;}.cls-7{fill:#333a63;}</style><clipPath id="clip-path"><path class="cls-1" d="M55,0A55,55,0,1,0,68.21,1.62,55,55,0,0,0,55,0h0"/></clipPath><radialGradient id="radial-gradient" cx="1566.58" cy="-642" r="0.28" gradientTransform="matrix(197.47, 0, 0, -197.47, -309294.3, -126720.16)" gradientUnits="userSpaceOnUse"><stop offset="0" stop-color="#fff"/><stop offset="0.78" stop-color="#fff"/><stop offset="0.82" stop-color="#f9f8f8"/><stop offset="0.88" stop-color="#e9e6e3"/><stop offset="0.95" stop-color="#cec8c2"/><stop offset="1" stop-color="#bab2a9"/></radialGradient></defs><title>Speed of sound UI</title><g class="cls-2"><rect class="cls-3" x="-5.68" width="121.35" height="115.67"/></g><path class="cls-4" d="M1.62,41.79a55,55,0,1,1,40.17,66.59A55,55,0,0,1,1.62,41.79"/><path class="cls-5" d="M94,16.23,71.9,31V2.67q-1.81-.58-3.69-1.05A54.73,54.73,0,0,0,38,2.72V31l-22-14.68A54.61,54.61,0,0,0,4,34.42l5.83,3.89H2.61c-.36,1.14-.69,2.3-1,3.48A54.72,54.72,0,0,0,2.78,72.24H10L4.21,76.09a55.26,55.26,0,0,0,12.1,18L38,79.67v27.61q1.88.61,3.83,1.1a54.72,54.72,0,0,0,30.11-1V79.67L93.62,94.15a54.64,54.64,0,0,0,12.14-18l-5.89-3.93h7.35q.65-2,1.16-4a54.74,54.74,0,0,0-1-29.9H100l5.95-4A55.24,55.24,0,0,0,94,16.23"/><path class="cls-6" d="M29.5,38.31,9.08,24.72a54.49,54.49,0,0,0-3.67,6.49l10.66,7.09Zm71.33-13.69a55.2,55.2,0,0,0-4.53-5.92L71.9,34.93v3.38h8.36ZM9.23,85.48a55.14,55.14,0,0,0,4.54,5.91L38,75.31V72.24H29.14Zm99.92-40.11H64.83V.9A54.71,54.71,0,0,0,45,.91V45.37H.86A54.68,54.68,0,0,0,.95,65.17H45v43.91a54.66,54.66,0,0,0,19.8,0V65.17H109a54.71,54.71,0,0,0,.11-19.79M80.73,72.24l20,13.31a54.41,54.41,0,0,0,3.71-6.47L94.16,72.24Z"/><path class="cls-7" d="M71.9,8.4h0V12A6.36,6.36,0,0,0,72.23,10,4,4,0,0,0,71.9,8.4"/></svg>